HIERARCHY
ROOT Hips
{
	OFFSET 0.00000 0.00000 0.00000
	CHANNELS 6 Xposition Yposition Zposition Yrotation Zrotation Xrotation 
	JOINT Lumbar
	{
		OFFSET 0 0 0
		CHANNELS 3 Zrotation Xrotation Yrotation
		JOINT Neck
		{
			OFFSET 0.00 0.2701 0.00
			CHANNELS 3 Zrotation Xrotation Yrotation
			End Site
			{
				OFFSET 0.00 0.1379 0.00
			}
		}
		JOINT RightShoulder
		{
			OFFSET 0.0119 0.2289 0.1181
			CHANNELS 3 Zrotation Xrotation Yrotation
			JOINT RightElbow
			{
				OFFSET 0.00 -0.1475 0.00
				CHANNELS 2 Zrotation Yrotation
				JOINT RightWrist
				{
					OFFSET 0.00 -0.1605 0.00
					CHANNELS 2 Zrotation Xrotation
					End Site
					{
						OFFSET 0.0040 -0.1068 0.0006
					}
				}
			}
		}
		JOINT LeftShoulder
		{
			OFFSET 0.0119 0.2289 -0.1181
			CHANNELS 3 Zrotation Xrotation Yrotation
			JOINT LeftElbow
			{
				OFFSET 0.00 -0.1475 0.00
				CHANNELS 2 Zrotation Yrotation
				JOINT LeftWrist
				{
					OFFSET 0.00 -0.1605 0.00
					CHANNELS 2 Zrotation Xrotation
					End Site
					{
						OFFSET 0.0040 -0.1068 -0.0006
					}
				}
			}
		}
	}
	JOINT RightHip
	{
		OFFSET 0.0316 -0.0424 0.0458
		CHANNELS 3 Zrotation Xrotation Yrotation
		JOINT RightKnee
		{
			OFFSET 0.00 -0.2438 0.00
			CHANNELS 1 Zrotation
			JOINT RightAnkle
			{
				OFFSET 0.00 -0.2449 0.00
				CHANNELS 3 Zrotation Xrotation Yrotation
				End Site
				{
					OFFSET 0.1237 -0.0542 0.0051
				}
			}
		}
	}
	JOINT LeftHip
	{
		OFFSET 0.0316 -0.0424 -0.0458
		CHANNELS 3 Zrotation Xrotation Yrotation
		JOINT LeftKnee
		{
			OFFSET 0.00 -0.2438 0.00
			CHANNELS 1 Zrotation
			JOINT LeftAnkle
			{
				OFFSET 0.00 -0.2449 0.00
				CHANNELS 3 Zrotation Xrotation Yrotation
				End Site
				{
					OFFSET 0.1237 -0.0542 -0.0051
				}
			}
		}
	}
}
MOTION
Frames: 22
Frame Time: 0.02
-0.00512 0.00306 -0.00597 -55.67732 -32.57267 -0.606 40.23245 -0.22466 -10.3281 2.19069 -6.18557 -0.76859 -26.37881 -4.48089 -8.54546 31.02424 82.30714 -1.71434 -0.66903 -14.61917 35.34924 -22.86706 46.12395 -111.45806 -2.63314 9.10219 35.65369 -1.12045 -5.79035 -20.02942 -7.26949 -4.11247 -4.25931 41.82582 3.18593 -1.83903 -23.46919 -7.04555 1.90459 3.16863
-0.00543 0.00249 -0.00297 -56.23692 -32.41455 -0.58479 40.4223 -0.20415 -9.95364 1.63383 -6.03617 -0.77134 -25.92062 -4.73558 -8.5053 30.76393 82.54286 -1.41697 -0.52823 -14.43415 35.07463 -21.11379 44.59685 -104.77363 -4.06727 7.53215 35.30955 -1.11119 -6.46445 -20.09229 -7.20442 -4.03569 -4.21863 41.40228 3.50625 -0.86432 -23.66367 -7.02768 1.86272 3.15011
-0.00574 0.00193 1e-05 -56.79533 -32.25591 -0.56425 40.61037 -0.1831 -9.58005 1.07855 -5.88731 -0.77416 -25.46246 -4.98947 -8.46622 30.50374 82.77666 -1.12186 -0.38784 -14.25126 34.80145 -19.36567 43.0762 -98.11967 -5.49296 5.9679 34.96504 -1.1013 -7.13761 -20.15481 -7.13944 -3.95902 -4.17801 40.981 3.82596 0.10551 -23.86165 -7.00995 1.82126 3.13178
-0.00605 0.00137 0.003 -57.35333 -32.09805 -0.54322 40.79942 -0.16255 -9.20672 0.52334 -5.73839 -0.77692 -25.00544 -5.24335 -8.42638 30.24407 83.01143 -0.82566 -0.24748 -14.06712 34.52776 -17.61768 41.55409 -91.45763 -6.92196 4.40289 34.62165 -1.09195 -7.80986 -20.21746 -7.07456 -3.88246 -4.13744 40.55875 4.14537 1.07684 -24.05608 -6.99212 1.77957 3.11333
-0.00635 0.00081 0.00599 -57.91222 -31.94127 -0.52128 40.99074 -0.14276 -8.83256 -0.03329 -5.58891 -0.77957 -24.54898 -5.49809 -8.38499 29.98467 83.24867 -0.52662 -0.1067 -13.88014 34.25246 -15.86484 40.02486 -84.76089 -8.36106 2.83163 34.27935 -1.0835 -8.48249 -20.28055 -7.00963 -3.80584 -4.09684 40.13435 4.46523 2.05397 -24.24578 -6.97418 1.73734 3.09463
-0.00667 0.00024 0.00896 -58.46955 -31.77882 -0.50366 41.17201 -0.11909 -8.46018 -0.58559 -5.44134 -0.78273 -24.08733 -5.75024 -8.35069 29.72294 83.47526 -0.23973 0.03285 -13.70573 33.98379 -14.1269 38.52231 -78.19684 -9.75862 1.28216 33.93034 -1.0706 -9.15667 -20.34186 -6.94456 -3.72908 -4.05618 39.71995 4.78457 3.00856 -24.46128 -6.95692 1.69749 3.07707
-0.00697 -0.00032 0.01196 -59.02963 -31.62751 -0.47746 41.37314 -0.10323 -8.0848 -1.1463 -5.29014 -0.78487 -23.63644 -6.00715 -8.30248 29.46582 83.72279 0.07103 0.17471 -13.50665 33.70197 -12.36042 36.96792 -71.37503 -11.23764 -0.30909 33.59472 -1.0666 -9.82729 -20.40664 -6.87982 -3.65265 -4.01566 39.28465 5.10468 4.00676 -24.62388 -6.93817 1.65295 3.05726
-0.00728 -0.00088 0.01494 -59.58676 -31.46672 -0.45899 41.55627 -0.08019 -7.71186 -1.69873 -5.1422 -0.78796 -23.17598 -6.25999 -8.26653 29.2051 83.95143 0.36024 0.31445 -13.32954 33.43245 -10.62109 35.46096 -64.78726 -12.64259 -1.86246 33.24763 -1.05453 -10.50064 -20.46832 -6.81483 -3.57599 -3.97505 38.87086 5.42394 4.96602 -24.83666 -6.92104 1.61261 3.03948
-0.00761 -0.00146 0.0179 -60.14228 -31.29096 -0.45079 41.71601 -0.04816 -7.34299 -2.24337 -4.99853 -0.79221 -22.70198 -6.50668 -8.24796 28.93715 84.15521 0.62117 0.45161 -13.1826 33.17729 -8.91087 34.01315 -58.49907 -13.95271 -3.36746 32.88263 -1.03193 -11.18001 -20.52579 -6.74928 -3.49869 -3.93414 38.47447 5.74292 5.87266 -25.10603 -6.90491 1.57797 3.02439
-0.00786 -0.00196 0.02098 -60.71307 -31.19114 -0.38597 42.00611 -0.06722 -6.95397 -2.83983 -4.83113 -0.78977 -22.30029 -6.78522 -8.13659 28.70228 84.49667 1.03896 0.60364 -12.87205 32.83749 -7.02085 32.22856 -50.5278 -15.79553 -5.14455 32.60895 -1.0679 -11.83283 -20.60623 -6.68618 -3.424 -3.8944 37.95125 6.0658 7.06697 -25.03563 -6.88007 1.51224 2.99445
-0.00826 -0.00262 0.0238 -61.2477 -30.93773 -0.43897 42.02402 0.02104 -6.6054 -3.32245 -4.71326 -0.80143 -21.74983 -6.9988 -8.21633 28.40316 84.5512 1.12968 0.7243 -12.90013 32.67751 -5.5182 31.15213 -46.08097 -16.52304 -6.35154 32.15029 -0.98165 -12.53633 -20.63901 -6.61841 -3.34451 -3.85256 37.71262 6.37892 7.66413 -25.69065 -6.87549 1.51099 2.99541
-0.00911 -0.00373 0.02591 -61.71482 -30.20394 -0.83141 41.26414 0.41037 -6.38595 -3.52746 -4.73725 -0.85223 -20.75614 -7.01465 -8.86292 27.88111 83.78022 0.28153 0.75818 -13.92238 33.00427 -5.01922 32.05763 -51.6216 -14.08905 -5.94594 31.11443 -0.54621 -13.42551 -20.53266 -6.53362 -3.24582 -3.8018 38.12042 6.67658 6.52541 -28.27986 -6.91096 1.69785 3.0856
-0.01009 -0.00499 0.02776 -62.13976 -29.32677 -1.3387 40.23694 0.90583 -6.20388 -3.61214 -4.80991 -0.91707 -19.6201 -6.96914 -9.69244 27.30385 82.7276 -0.8876 0.76077 -15.27362 33.51176 -4.91782 33.66676 -60.643 -10.55453 -4.97657 29.9052 0.00884 -14.35744 -20.37975 -6.44491 -3.14338 -3.74947 38.83683 6.9614 4.80491 -31.60277 -6.96925 1.94746 3.206
-0.01097 -0.00617 0.02971 -62.56329 -28.55378 -1.78352 39.35186 1.34899 -5.99269 -3.72865 -4.85639 -0.97528 -18.57131 -6.96412 -10.41204 26.78143 81.82948 -1.88257 0.77803 -16.43065 33.94235 -4.67621 34.92907 -67.86485 -7.58862 -4.29702 28.82136 0.50085 -15.23877 -20.25394 -6.36075 -3.04664 -3.69994 39.50259 7.24595 3.4144 -34.63348 -7.02774 2.16101 3.30968
-0.01201 -0.00742 0.03171 -63.0736 -27.61609 -2.27388 38.37795 1.8113 -5.83221 -3.93968 -4.92002 -1.03478 -17.42468 -6.90475 -11.24977 26.13053 80.82126 -2.99673 0.79299 -17.77299 34.35572 -4.2743 36.30831 -76.01164 -4.32849 -3.4755 27.54249 1.03202 -16.24979 -20.10401 -6.26495 -2.9332 -3.6417 39.79945 7.56018 1.74658 -37.51311 -7.04328 2.4063 3.42607
-0.01276 -0.00855 0.03355 -63.39318 -26.98709 -2.69416 37.52717 2.25665 -5.57572 -3.92745 -4.95958 -1.09465 -16.45101 -6.94531 -11.87893 25.73763 79.9726 -3.93983 0.80574 -18.81239 34.84214 -4.28828 37.60913 -83.05837 -1.42401 -2.81469 26.62615 1.50715 -17.00329 -19.99196 -6.19242 -2.85342 -3.6011 40.92683 7.80463 0.51745 -40.85437 -7.15162 2.60063 3.52314
-0.01274 -0.00932 0.0349 -63.19633 -27.2494 -2.91329 37.0705 2.64774 -5.0383 -3.31071 -4.92021 -1.15431 -15.96564 -7.2665 -11.93617 26.04176 79.66274 -4.31901 0.81566 -18.89023 35.53455 -5.45973 38.53251 -86.19598 0.259 -2.75077 26.77577 1.82223 -17.0123 -20.0071 -6.1856 -2.86976 -3.6109 44.36321 7.90299 0.6552 -45.51488 -7.52805 2.63619 3.5591
-0.0124 -0.00996 0.03611 -62.80913 -27.8265 -3.05409 36.74932 3.01457 -4.40429 -2.47709 -4.8554 -1.21343 -15.66395 -7.6924 -11.76763 26.61309 79.51944 -4.51587 0.82462 -18.66025 36.28568 -7.01793 39.35021 -88.11313 1.54206 -2.86632 27.29157 2.07243 -16.76402 -20.05974 -6.20228 -2.91975 -3.6383 48.60578 7.92451 1.2537 -50.56959 -7.99366 2.61865 3.57456
-0.01217 -0.01063 0.03743 -62.50896 -28.2572 -3.21723 36.37342 3.38033 -3.81869 -1.75381 -4.80211 -1.27132 -15.29382 -8.07709 -11.67089 27.08076 79.27869 -4.80642 0.83769 -18.60002 36.9774 -8.32674 40.20885 -90.59547 2.98582 -2.8888 27.6257 2.33637 -16.64968 -20.08806 -6.20782 -2.95277 -3.65675 52.42174 7.95139 1.63096 -55.30044 -8.40722 2.62738 3.59976
-0.01214 -0.01142 0.03854 -62.20458 -28.69761 -3.4402 35.95862 3.80092 -3.21489 -0.97516 -4.74916 -1.33592 -14.85456 -8.43245 -11.71216 27.47053 79.11325 -5.06825 0.83675 -18.42434 37.81137 -9.95242 41.12257 -93.13751 4.54909 -2.93641 28.0203 2.67027 -16.46867 -20.14604 -6.215 -2.99245 -3.679 56.51037 8.09832 2.03196 -60.6801 -8.87089 2.62988 3.62454
-0.0116 -0.01193 0.04008 -61.86497 -29.19363 -3.51867 35.66127 4.10006 -2.62617 -0.26373 -4.69078 -1.38627 -14.60563 -8.87491 -11.40803 28.08793 78.84259 -5.33515 0.86193 -18.41282 38.3634 -11.01467 41.88657 -95.24178 5.76397 -2.98635 28.37553 2.84234 -16.36028 -20.15103 -6.22462 -3.02666 -3.69773 60.20897 7.98253 2.50798 -64.77707 -9.25023 2.63116 3.64453
-0.00982 -0.01174 0.04276 -61.46918 -29.77365 -3.21539 35.6502 4.07024 -2.09798 0.22378 -4.60584 -1.39692 -14.82976 -9.52739 -10.22605 29.25629 78.15718 -5.72689 0.99075 -18.91909 38.09596 -10.33588 42.26491 -96.19662 6.01015 -2.95973 28.55522 2.57575 -16.55527 -20.0068 -6.23347 -3.03458 -3.70078 62.71317 7.11264 3.01438 -65.3651 -9.38169 2.64872 3.65989
